<?xml version="1.0" encoding="UTF-8"?>
<svg xmlns="http://www.w3.org/2000/svg" viewBox="0 0 512 512" role="img" aria-label="TI OSN System Logo">
  <title>TI OSN</title>
  <path fill="#008BCD" d="M176 24c0-13.3-10.7-24-24-24s-24 10.7-24 24V64c-35.3 0-64 28.7-64 64H24c-13.3 0-24 10.7-24 24s10.7 24 24 24H64V352c0 88.4 71.6 160 160 160s160-71.6 160-160V176h40c13.3 0 24-10.7 24-24s-10.7-24-24-24H384c0-35.3-28.7-64-64-64V24c0-13.3-10.7-24-24-24s-24 10.7-24 24V64H176V24zM160 128H352c17.7 0 32 14.3 32 32V352c0 53-43 96-96 96s-96-43-96-96V160c0-17.7 14.3-32 32-32zm32 64v16c0 17.7 14.3 32 32 32h64c17.7 0 32-14.3 32-32V192c0-17.7-14.3-32-32-32H224c-17.7 0-32 14.3-32 32z"/>
</svg>
